<svg width="21" height="21" viewBox="0 0 21 21" fill="none" xmlns="http://www.w3.org/2000/svg">
<path d="M15.2307 6.76916C15.2307 7.70379 14.473 8.46146 13.5384 8.46146C12.6038 8.46146 11.8461 7.70379 11.8461 6.76916C11.8461 5.83452 12.6038 5.07685 13.5384 5.07685C14.473 5.07685 15.2307 5.83452 15.2307 6.76916Z" fill="white"/>
<path fill-rule="evenodd" clip-rule="evenodd" d="M10.2023 1.05762H10.1052C8.15197 1.05761 6.62124 1.0576 5.42691 1.21817C4.20444 1.38253 3.2398 1.72551 2.48266 2.48266C1.72551 3.2398 1.38253 4.20444 1.21817 5.42691C1.0576 6.62124 1.05761 8.15196 1.05762 10.1052V10.2023C1.05761 12.1556 1.0576 13.6863 1.21817 14.8806C1.38253 16.1031 1.72551 17.0677 2.48266 17.8249C3.2398 18.582 4.20444 18.925 5.42691 19.0894C6.62124 19.2499 8.15197 19.2499 10.1052 19.2499H10.2023C12.1556 19.2499 13.6863 19.2499 14.8806 19.0894C16.1031 18.925 17.0677 18.582 17.8249 17.8249C18.582 17.0677 18.925 16.1031 19.0894 14.8806C19.2499 13.6863 19.2499 12.1556 19.2499 10.2023V10.1052C19.2499 8.15197 19.2499 6.62124 19.0894 5.42691C18.925 4.20444 18.582 3.2398 17.8249 2.48266C17.0677 1.72551 16.1031 1.38253 14.8806 1.21817C13.6863 1.0576 12.1556 1.05761 10.2023 1.05762ZM3.38014 3.38014C3.86215 2.89812 4.5143 2.62152 5.59603 2.47609C6.69601 2.3282 8.14143 2.32685 10.1538 2.32685C12.1661 2.32685 13.6115 2.3282 14.7115 2.47609C15.7932 2.62152 16.4454 2.89812 16.9274 3.38014C17.4094 3.86215 17.686 4.5143 17.8315 5.59603C17.9793 6.69601 17.9807 8.14143 17.9807 10.1538C17.9807 10.5347 17.9806 10.8954 17.9796 11.2372L17.7916 11.2112C15.3854 10.878 13.1834 12.1289 12.0622 14.0144C10.6157 10.3548 6.79322 7.85906 2.52208 8.47235L2.33105 8.49989C2.34067 7.31063 2.37227 6.36821 2.47609 5.59603C2.62152 4.5143 2.89812 3.86215 3.38014 3.38014Z" fill="white"/>
</svg>
