<svg width="26" height="26" viewBox="0 0 26 26" fill="none" xmlns="http://www.w3.org/2000/svg">
<path d="M12.9998 23.8334C11.5193 23.8334 10.12 23.5489 8.80192 22.9797C7.48386 22.4106 6.333 21.6342 5.34934 20.6506C4.36567 19.6669 3.58928 18.5161 3.02017 17.198C2.45106 15.8799 2.1665 14.4806 2.1665 13.0001C2.1665 11.5015 2.46009 10.0931 3.04725 8.77508C3.63442 7.45703 4.42886 6.3105 5.43059 5.3355C6.43231 4.3605 7.60123 3.5888 8.93734 3.02041C10.2734 2.45203 11.6998 2.16747 13.2165 2.16675C14.6609 2.16675 16.0241 2.41519 17.3061 2.91208C18.588 3.40897 19.7122 4.09508 20.6785 4.97041C21.6448 5.84575 22.4122 6.88394 22.9806 8.085C23.549 9.28605 23.8332 10.5814 23.8332 11.9709C23.8332 14.0473 23.2012 15.6409 21.9373 16.7517C20.6734 17.8624 19.1387 18.4175 17.3332 18.4167H15.329C15.1665 18.4167 15.0538 18.4619 14.991 18.5522C14.9282 18.6424 14.8964 18.7417 14.8957 18.8501C14.8957 19.0667 15.0311 19.3784 15.3019 19.785C15.5728 20.1916 15.7082 20.6564 15.7082 21.1792C15.7082 22.082 15.4601 22.7501 14.9639 23.1834C14.4678 23.6167 13.8131 23.8334 12.9998 23.8334ZM7.0415 14.0834C7.51095 14.0834 7.89914 13.9299 8.20609 13.623C8.51303 13.3161 8.6665 12.9279 8.6665 12.4584C8.6665 11.989 8.51303 11.6008 8.20609 11.2938C7.89914 10.9869 7.51095 10.8334 7.0415 10.8334C6.57206 10.8334 6.18387 10.9869 5.87692 11.2938C5.56998 11.6008 5.4165 11.989 5.4165 12.4584C5.4165 12.9279 5.56998 13.3161 5.87692 13.623C6.18387 13.9299 6.57206 14.0834 7.0415 14.0834ZM10.2915 9.75008C10.7609 9.75008 11.1491 9.59661 11.4561 9.28966C11.763 8.98272 11.9165 8.59453 11.9165 8.12508C11.9165 7.65564 11.763 7.26744 11.4561 6.9605C11.1491 6.65355 10.7609 6.50008 10.2915 6.50008C9.82206 6.50008 9.43386 6.65355 9.12692 6.9605C8.81998 7.26744 8.6665 7.65564 8.6665 8.12508C8.6665 8.59453 8.81998 8.98272 9.12692 9.28966C9.43386 9.59661 9.82206 9.75008 10.2915 9.75008ZM15.7082 9.75008C16.1776 9.75008 16.5658 9.59661 16.8728 9.28966C17.1797 8.98272 17.3332 8.59453 17.3332 8.12508C17.3332 7.65564 17.1797 7.26744 16.8728 6.9605C16.5658 6.65355 16.1776 6.50008 15.7082 6.50008C15.2387 6.50008 14.8505 6.65355 14.5436 6.9605C14.2366 7.26744 14.0832 7.65564 14.0832 8.12508C14.0832 8.59453 14.2366 8.98272 14.5436 9.28966C14.8505 9.59661 15.2387 9.75008 15.7082 9.75008ZM18.9582 14.0834C19.4276 14.0834 19.8158 13.9299 20.1228 13.623C20.4297 13.3161 20.5832 12.9279 20.5832 12.4584C20.5832 11.989 20.4297 11.6008 20.1228 11.2938C19.8158 10.9869 19.4276 10.8334 18.9582 10.8334C18.4887 10.8334 18.1005 10.9869 17.7936 11.2938C17.4866 11.6008 17.3332 11.989 17.3332 12.4584C17.3332 12.9279 17.4866 13.3161 17.7936 13.623C18.1005 13.9299 18.4887 14.0834 18.9582 14.0834Z" fill="white"/>
</svg>
